<?xml version="1.0" encoding="iso-8859-1"?>
<!-- Generator: Adobe Illustrator 15.1.0, SVG Export Plug-In . SVG Version: 6.00 Build 0)  -->
<!DOCTYPE svg PUBLIC "-//W3C//DTD SVG 1.1//EN" "http://www.w3.org/Graphics/SVG/1.1/DTD/svg11.dtd">
<svg version="1.1" id="Layer_1" xmlns="http://www.w3.org/2000/svg" xmlns:xlink="http://www.w3.org/1999/xlink" x="0px" y="0px"
	 width="247.941px" height="383.076px" viewBox="0 0 247.941 383.076" style="enable-background:new 0 0 247.941 383.076;"
	 xml:space="preserve">
<style type="text/css">
<![CDATA[
	.st0{fill:none;stroke:#000000;stroke-width:1.25;stroke-miterlimit:10;}
	.st1{stroke:#FFFFFF;stroke-miterlimit:10;}
	.st2{fill:#FFFFFF;}
]]>
</style>
<g>
	<path class="st2" d="M65.952,118.317c0-2.75,2.25-5,5-5h34.377c2.75,0,5,2.25,5,5v34.376c0,2.75-2.25,5-5,5H70.952
		c-2.75,0-5-2.25-5-5V118.317z"/>
	<path class="st0" d="M65.952,118.317c0-2.75,2.25-5,5-5h34.377c2.75,0,5,2.25,5,5v34.376c0,2.75-2.25,5-5,5H70.952
		c-2.75,0-5-2.25-5-5V118.317z"/>
</g>
<g>
	<path class="st2" d="M110.329,118.317c0-2.75,2.25-5,5-5h34.377c2.75,0,5,2.25,5,5v34.376c0,2.75-2.25,5-5,5h-34.377
		c-2.75,0-5-2.25-5-5V118.317z"/>
	<path class="st0" d="M110.329,118.317c0-2.75,2.25-5,5-5h34.377c2.75,0,5,2.25,5,5v34.376c0,2.75-2.25,5-5,5h-34.377
		c-2.75,0-5-2.25-5-5V118.317z"/>
</g>
<g>
	<path class="st2" d="M154.704,118.317c0-2.75,2.25-5,5-5h34.378c2.75,0,5,2.25,5,5v34.376c0,2.75-2.25,5-5,5h-34.378
		c-2.75,0-5-2.25-5-5V118.317L154.704,118.317z"/>
	<path class="st0" d="M154.704,118.317c0-2.75,2.25-5,5-5h34.378c2.75,0,5,2.25,5,5v34.376c0,2.75-2.25,5-5,5h-34.378
		c-2.75,0-5-2.25-5-5V118.317L154.704,118.317z"/>
</g>
<g>
	<path class="st2" d="M199.082,118.317c0-2.75,2.25-5,5-5h34.377c2.75,0,5,2.25,5,5v34.376c0,2.75-2.25,5-5,5h-34.377
		c-2.75,0-5-2.25-5-5V118.317z"/>
	<path class="st0" d="M199.082,118.317c0-2.75,2.25-5,5-5h34.377c2.75,0,5,2.25,5,5v34.376c0,2.75-2.25,5-5,5h-34.377
		c-2.75,0-5-2.25-5-5V118.317z"/>
</g>
<g>
	<path class="st2" d="M65.952,162.694c0-2.75,2.25-5,5-5h34.377c2.75,0,5,2.25,5,5v34.378c0,2.75-2.25,5-5,5H70.952
		c-2.75,0-5-2.25-5-5V162.694z"/>
	<path class="st0" d="M65.952,162.694c0-2.75,2.25-5,5-5h34.377c2.75,0,5,2.25,5,5v34.378c0,2.75-2.25,5-5,5H70.952
		c-2.75,0-5-2.25-5-5V162.694z"/>
</g>
<g>
	<path class="st2" d="M110.329,162.694c0-2.75,2.25-5,5-5h34.377c2.75,0,5,2.25,5,5v34.378c0,2.75-2.25,5-5,5h-34.377
		c-2.75,0-5-2.25-5-5V162.694z"/>
	<path class="st0" d="M110.329,162.694c0-2.75,2.25-5,5-5h34.377c2.75,0,5,2.25,5,5v34.378c0,2.75-2.25,5-5,5h-34.377
		c-2.75,0-5-2.25-5-5V162.694z"/>
</g>
<g>
	<path class="st2" d="M154.704,162.694c0-2.75,2.25-5,5-5h34.378c2.75,0,5,2.25,5,5v34.378c0,2.75-2.25,5-5,5h-34.378
		c-2.75,0-5-2.25-5-5V162.694L154.704,162.694z"/>
	<path class="st0" d="M154.704,162.694c0-2.75,2.25-5,5-5h34.378c2.75,0,5,2.25,5,5v34.378c0,2.75-2.25,5-5,5h-34.378
		c-2.75,0-5-2.25-5-5V162.694L154.704,162.694z"/>
</g>
<g>
	<path class="st2" d="M199.082,162.694c0-2.75,2.25-5,5-5h34.377c2.75,0,5,2.25,5,5v34.378c0,2.75-2.25,5-5,5h-34.377
		c-2.75,0-5-2.25-5-5V162.694z"/>
	<path class="st0" d="M199.082,162.694c0-2.75,2.25-5,5-5h34.377c2.75,0,5,2.25,5,5v34.378c0,2.75-2.25,5-5,5h-34.377
		c-2.75,0-5-2.25-5-5V162.694z"/>
</g>
<g>
	<path class="st2" d="M65.952,207.071c0-2.75,2.25-5,5-5h34.377c2.75,0,5,2.25,5,5v34.376c0,2.75-2.25,5-5,5H70.952
		c-2.75,0-5-2.25-5-5V207.071z"/>
	<path class="st0" d="M65.952,207.071c0-2.75,2.25-5,5-5h34.377c2.75,0,5,2.25,5,5v34.376c0,2.75-2.25,5-5,5H70.952
		c-2.75,0-5-2.25-5-5V207.071z"/>
</g>
<g>
	<path class="st2" d="M110.329,207.071c0-2.75,2.25-5,5-5h34.377c2.75,0,5,2.25,5,5v34.376c0,2.75-2.25,5-5,5h-34.377
		c-2.75,0-5-2.25-5-5V207.071z"/>
	<path class="st0" d="M110.329,207.071c0-2.75,2.25-5,5-5h34.377c2.75,0,5,2.25,5,5v34.376c0,2.75-2.25,5-5,5h-34.377
		c-2.75,0-5-2.25-5-5V207.071z"/>
</g>
<g>
	<path class="st2" d="M154.704,207.071c0-2.75,2.25-5,5-5h34.378c2.75,0,5,2.25,5,5v34.376c0,2.75-2.25,5-5,5h-34.378
		c-2.75,0-5-2.25-5-5V207.071L154.704,207.071z"/>
	<path class="st0" d="M154.704,207.071c0-2.75,2.25-5,5-5h34.378c2.75,0,5,2.25,5,5v34.376c0,2.75-2.25,5-5,5h-34.378
		c-2.75,0-5-2.25-5-5V207.071L154.704,207.071z"/>
</g>
<g>
	<path class="st2" d="M199.082,207.071c0-2.75,2.25-5,5-5h34.377c2.75,0,5,2.25,5,5v34.376c0,2.75-2.25,5-5,5h-34.377
		c-2.75,0-5-2.25-5-5V207.071z"/>
	<path class="st0" d="M199.082,207.071c0-2.75,2.25-5,5-5h34.377c2.75,0,5,2.25,5,5v34.376c0,2.75-2.25,5-5,5h-34.377
		c-2.75,0-5-2.25-5-5V207.071z"/>
</g>
<g>
	<path class="st2" d="M65.952,251.447c0-2.75,2.25-5,5-5h34.377c2.75,0,5,2.25,5,5v34.378c0,2.75-2.25,5-5,5H70.952
		c-2.75,0-5-2.25-5-5V251.447z"/>
	<path class="st0" d="M65.952,251.447c0-2.75,2.25-5,5-5h34.377c2.75,0,5,2.25,5,5v34.378c0,2.75-2.25,5-5,5H70.952
		c-2.75,0-5-2.25-5-5V251.447z"/>
</g>
<g>
	<path class="st2" d="M110.329,251.447c0-2.75,2.25-5,5-5h34.377c2.75,0,5,2.25,5,5v34.378c0,2.75-2.25,5-5,5h-34.377
		c-2.75,0-5-2.25-5-5V251.447z"/>
	<path class="st0" d="M110.329,251.447c0-2.75,2.25-5,5-5h34.377c2.75,0,5,2.25,5,5v34.378c0,2.75-2.25,5-5,5h-34.377
		c-2.75,0-5-2.25-5-5V251.447z"/>
</g>
<g>
	<path class="st2" d="M154.704,251.447c0-2.75,2.25-5,5-5h34.378c2.75,0,5,2.25,5,5v34.378c0,2.75-2.25,5-5,5h-34.378
		c-2.75,0-5-2.25-5-5V251.447L154.704,251.447z"/>
	<path class="st0" d="M154.704,251.447c0-2.75,2.25-5,5-5h34.378c2.75,0,5,2.25,5,5v34.378c0,2.75-2.25,5-5,5h-34.378
		c-2.75,0-5-2.25-5-5V251.447L154.704,251.447z"/>
</g>
<g>
	<path class="st2" d="M199.082,251.447c0-2.75,2.25-5,5-5h34.377c2.75,0,5,2.25,5,5v34.378c0,2.75-2.25,5-5,5h-34.377
		c-2.75,0-5-2.25-5-5V251.447z"/>
	<path class="st0" d="M199.082,251.447c0-2.75,2.25-5,5-5h34.377c2.75,0,5,2.25,5,5v34.378c0,2.75-2.25,5-5,5h-34.377
		c-2.75,0-5-2.25-5-5V251.447z"/>
</g>
<g>
	<path class="st2" d="M65.952,295.823c0-2.75,2.25-5,5-5h34.377c2.75,0,5,2.25,5,5v34.376c0,2.75-2.25,5-5,5H70.952
		c-2.75,0-5-2.25-5-5V295.823z"/>
	<path class="st0" d="M65.952,295.823c0-2.75,2.25-5,5-5h34.377c2.75,0,5,2.25,5,5v34.376c0,2.75-2.25,5-5,5H70.952
		c-2.75,0-5-2.25-5-5V295.823z"/>
</g>
<g>
	<path class="st2" d="M110.329,295.823c0-2.75,2.25-5,5-5h34.377c2.75,0,5,2.25,5,5v34.376c0,2.75-2.25,5-5,5h-34.377
		c-2.75,0-5-2.25-5-5V295.823z"/>
	<path class="st0" d="M110.329,295.823c0-2.75,2.25-5,5-5h34.377c2.75,0,5,2.25,5,5v34.376c0,2.75-2.25,5-5,5h-34.377
		c-2.75,0-5-2.25-5-5V295.823z"/>
</g>
<g>
	<path class="st2" d="M154.704,295.823c0-2.75,2.25-5,5-5h34.378c2.75,0,5,2.25,5,5v34.376c0,2.75-2.25,5-5,5h-34.378
		c-2.75,0-5-2.25-5-5V295.823L154.704,295.823z"/>
	<path class="st0" d="M154.704,295.823c0-2.75,2.25-5,5-5h34.378c2.75,0,5,2.25,5,5v34.376c0,2.75-2.25,5-5,5h-34.378
		c-2.75,0-5-2.25-5-5V295.823L154.704,295.823z"/>
</g>
<g>
	<path class="st2" d="M199.082,295.823c0-2.75,2.25-5,5-5h34.377c2.75,0,5,2.25,5,5v34.376c0,2.75-2.25,5-5,5h-34.377
		c-2.75,0-5-2.25-5-5V295.823z"/>
	<path class="st0" d="M199.082,295.823c0-2.75,2.25-5,5-5h34.377c2.75,0,5,2.25,5,5v34.376c0,2.75-2.25,5-5,5h-34.377
		c-2.75,0-5-2.25-5-5V295.823z"/>
</g>
<g>
	<path class="st2" d="M65.952,340.199c0-2.75,2.25-5,5-5h34.377c2.75,0,5,2.25,5,5v34.377c0,2.75-2.25,5-5,5H70.952
		c-2.75,0-5-2.25-5-5V340.199z"/>
	<path class="st0" d="M65.952,340.199c0-2.75,2.25-5,5-5h34.377c2.75,0,5,2.25,5,5v34.377c0,2.75-2.25,5-5,5H70.952
		c-2.75,0-5-2.25-5-5V340.199z"/>
</g>
<g>
	<path class="st2" d="M110.329,340.199c0-2.75,2.25-5,5-5h34.377c2.75,0,5,2.25,5,5v34.377c0,2.75-2.25,5-5,5h-34.377
		c-2.75,0-5-2.25-5-5V340.199z"/>
	<path class="st0" d="M110.329,340.199c0-2.75,2.25-5,5-5h34.377c2.75,0,5,2.25,5,5v34.377c0,2.75-2.25,5-5,5h-34.377
		c-2.75,0-5-2.25-5-5V340.199z"/>
</g>
<g>
	<path class="st2" d="M154.704,340.199c0-2.75,2.25-5,5-5h34.378c2.75,0,5,2.25,5,5v34.377c0,2.75-2.25,5-5,5h-34.378
		c-2.75,0-5-2.25-5-5V340.199L154.704,340.199z"/>
	<path class="st0" d="M154.704,340.199c0-2.75,2.25-5,5-5h34.378c2.75,0,5,2.25,5,5v34.377c0,2.75-2.25,5-5,5h-34.378
		c-2.75,0-5-2.25-5-5V340.199L154.704,340.199z"/>
</g>
<g>
	<path class="st2" d="M199.082,340.199c0-2.75,2.25-5,5-5h34.377c2.75,0,5,2.25,5,5v34.377c0,2.75-2.25,5-5,5h-34.377
		c-2.75,0-5-2.25-5-5V340.199z"/>
	<path class="st0" d="M199.082,340.199c0-2.75,2.25-5,5-5h34.377c2.75,0,5,2.25,5,5v34.377c0,2.75-2.25,5-5,5h-34.377
		c-2.75,0-5-2.25-5-5V340.199z"/>
</g>
<g>
	<g>
		<path d="M12.934,233.573h-2.282v-14.539c-0.549,0.523-1.269,1.048-2.161,1.571c-0.894,0.523-1.691,0.917-2.403,1.18v-2.206
			c1.276-0.6,2.392-1.327,3.346-2.18c0.955-0.855,1.631-1.684,2.028-2.486h1.471v18.66H12.934z"/>
	</g>
	<g>
		<path d="M46.912,233.573H44.63v-14.539c-0.549,0.523-1.27,1.048-2.162,1.571s-1.692,0.917-2.403,1.18v-2.206
			c1.277-0.6,2.393-1.327,3.347-2.18c0.955-0.855,1.631-1.684,2.027-2.486h1.472v18.66H46.912z"/>
	</g>
</g>
<g>
	<path d="M46.912,277.942H44.63v-14.539c-0.549,0.523-1.27,1.05-2.162,1.572s-1.692,0.918-2.403,1.179v-2.206
		c1.277-0.6,2.393-1.326,3.347-2.18c0.955-0.854,1.631-1.683,2.027-2.484h1.472v18.658H46.912L46.912,277.942z"/>
</g>
<g>
	<path d="M46.912,322.312H44.63v-14.539c-0.549,0.522-1.27,1.048-2.162,1.571c-0.893,0.521-1.692,0.917-2.403,1.178v-2.204
		c1.277-0.601,2.393-1.327,3.347-2.182c0.955-0.854,1.631-1.683,2.027-2.484h1.472v18.66H46.912z"/>
</g>
<g>
	<path d="M45.631,366.68v-4.449h-8.062v-2.092l8.48-12.042h1.864v12.042h2.51v2.092h-2.51v4.449H45.631z M45.631,360.139v-8.379
		l-5.817,8.379H45.631z"/>
</g>
<g>
	<path d="M50.308,142.642v2.192H38.024c-0.017-0.55,0.073-1.078,0.268-1.585c0.312-0.836,0.812-1.66,1.503-2.472
		c0.688-0.812,1.683-1.749,2.984-2.813c2.021-1.655,3.386-2.969,4.096-3.937c0.709-0.967,1.063-1.881,1.063-2.744
		c0-0.904-0.322-1.667-0.969-2.287c-0.646-0.621-1.49-0.933-2.528-0.933c-1.1,0-1.978,0.331-2.637,0.99
		c-0.659,0.658-0.992,1.571-1,2.736l-2.345-0.241c0.16-1.749,0.764-3.082,1.812-3.999c1.049-0.918,2.455-1.376,4.222-1.376
		c1.782,0,3.194,0.495,4.233,1.482c1.04,0.989,1.56,2.214,1.56,3.676c0,0.745-0.151,1.476-0.456,2.194
		c-0.306,0.719-0.81,1.475-1.515,2.269c-0.706,0.794-1.878,1.886-3.518,3.271c-1.369,1.148-2.249,1.928-2.636,2.339
		c-0.389,0.412-0.71,0.823-0.964,1.237L50.308,142.642L50.308,142.642L50.308,142.642z"/>
</g>
<g>
	<g>
		<path d="M12.934,189.203h-2.282v-14.538c-0.549,0.522-1.269,1.048-2.161,1.572c-0.894,0.522-1.691,0.916-2.403,1.177v-2.204
			c1.276-0.6,2.392-1.325,3.346-2.182c0.955-0.854,1.631-1.682,2.028-2.484h1.471v18.659H12.934z"/>
	</g>
	<g>
		<path d="M50.308,187.01v2.192H38.024c-0.017-0.55,0.073-1.076,0.268-1.585c0.312-0.837,0.812-1.66,1.503-2.472
			c0.688-0.812,1.683-1.749,2.984-2.814c2.021-1.653,3.386-2.967,4.096-3.935c0.709-0.968,1.063-1.883,1.063-2.745
			c0-0.904-0.322-1.668-0.969-2.287c-0.646-0.62-1.49-0.933-2.528-0.933c-1.1,0-1.978,0.331-2.637,0.989
			c-0.659,0.659-0.992,1.571-1,2.736l-2.345-0.24c0.16-1.75,0.764-3.082,1.812-3.999c1.049-0.917,2.455-1.376,4.222-1.376
			c1.782,0,3.194,0.494,4.233,1.483c1.04,0.987,1.56,2.212,1.56,3.676c0,0.743-0.151,1.473-0.456,2.192
			c-0.306,0.719-0.81,1.475-1.515,2.27c-0.706,0.794-1.878,1.885-3.518,3.271c-1.369,1.149-2.249,1.93-2.636,2.339
			c-0.389,0.411-0.71,0.823-0.964,1.237L50.308,187.01L50.308,187.01L50.308,187.01z"/>
	</g>
</g>
<g>
	<g>
		<path d="M90.594,61.173h-2.282V46.634c-0.549,0.524-1.269,1.049-2.162,1.572c-0.893,0.524-1.69,0.917-2.402,1.18v-2.206
			c1.275-0.601,2.391-1.327,3.346-2.181c0.955-0.853,1.632-1.682,2.028-2.485h1.471L90.594,61.173L90.594,61.173z"/>
	</g>
	<g>
		<path d="M182.743,58.98v2.193h-12.282c-0.02-0.549,0.069-1.076,0.266-1.584c0.312-0.836,0.812-1.659,1.503-2.473
			c0.69-0.811,1.684-1.749,2.985-2.812c2.019-1.656,3.385-2.97,4.094-3.938s1.064-1.882,1.064-2.745c0-0.903-0.322-1.666-0.97-2.287
			c-0.646-0.62-1.489-0.931-2.527-0.931c-1.1,0-1.978,0.33-2.636,0.989c-0.659,0.659-0.992,1.571-1.003,2.737l-2.344-0.24
			c0.16-1.749,0.764-3.082,1.812-4c1.049-0.917,2.455-1.376,4.221-1.376c1.783,0,3.194,0.496,4.233,1.482
			c1.041,0.989,1.561,2.214,1.561,3.676c0,0.745-0.151,1.476-0.456,2.194c-0.304,0.72-0.809,1.473-1.516,2.27
			c-0.704,0.794-1.876,1.884-3.518,3.271c-1.366,1.149-2.249,1.928-2.635,2.339c-0.389,0.411-0.71,0.822-0.965,1.235h9.109V58.98
			H182.743z"/>
	</g>
	<g>
		<path d="M227.121,58.98v2.193h-12.284c-0.018-0.549,0.072-1.076,0.268-1.584c0.312-0.836,0.812-1.659,1.502-2.473
			c0.689-0.811,1.685-1.749,2.985-2.812c2.02-1.656,3.386-2.97,4.095-3.938s1.064-1.882,1.064-2.745
			c0-0.903-0.322-1.666-0.969-2.287c-0.646-0.62-1.49-0.931-2.528-0.931c-1.1,0-1.979,0.33-2.637,0.989
			c-0.659,0.659-0.991,1.571-1.001,2.737l-2.347-0.24c0.161-1.749,0.766-3.082,1.814-4c1.048-0.917,2.453-1.376,4.22-1.376
			c1.783,0,3.194,0.496,4.235,1.482c1.04,0.989,1.559,2.214,1.559,3.676c0,0.745-0.152,1.476-0.456,2.194
			c-0.305,0.72-0.809,1.473-1.515,2.27c-0.705,0.794-1.877,1.884-3.518,3.271c-1.368,1.149-2.249,1.928-2.637,2.339
			c-0.389,0.411-0.71,0.822-0.963,1.235h9.109V58.98H227.121z"/>
	</g>
	<g>
		<path d="M134.97,61.173h-2.281V46.634c-0.551,0.524-1.27,1.049-2.162,1.572c-0.894,0.524-1.692,0.917-2.402,1.18v-2.206
			c1.275-0.601,2.392-1.327,3.347-2.181c0.955-0.853,1.631-1.682,2.028-2.485h1.47L134.97,61.173L134.97,61.173z"/>
	</g>
</g>
<g>
	<path d="M134.97,24.26h-2.281V9.721c-0.551,0.521-1.27,1.048-2.162,1.571c-0.894,0.524-1.692,0.917-2.402,1.178v-2.204
		c1.275-0.601,2.392-1.327,3.347-2.183c0.955-0.854,1.631-1.682,2.028-2.483h1.47L134.97,24.26L134.97,24.26z"/>
</g>
<g>
	<g>
		<path d="M90.594,97.759h-2.282V83.219c-0.549,0.521-1.269,1.048-2.162,1.571c-0.893,0.524-1.69,0.917-2.402,1.18v-2.206
			c1.275-0.601,2.391-1.327,3.346-2.181c0.955-0.854,1.632-1.682,2.028-2.485h1.471L90.594,97.759L90.594,97.759z"/>
	</g>
	<g>
		<path d="M170.765,92.853l2.281-0.305c0.264,1.293,0.71,2.225,1.339,2.797c0.628,0.569,1.396,0.854,2.3,0.854
			c1.073,0,1.979-0.372,2.72-1.116c0.737-0.742,1.106-1.663,1.106-2.763c0-1.048-0.341-1.913-1.025-2.591
			c-0.686-0.68-1.555-1.021-2.611-1.021c-0.432,0-0.968,0.086-1.61,0.254l0.254-2.003c0.152,0.018,0.274,0.025,0.369,0.025
			c0.972,0,1.845-0.253,2.622-0.759c0.777-0.507,1.168-1.29,1.168-2.346c0-0.837-0.283-1.53-0.85-2.078
			c-0.567-0.549-1.298-0.824-2.194-0.824c-0.887,0-1.626,0.278-2.218,0.836c-0.59,0.559-0.973,1.396-1.141,2.51l-2.28-0.406
			c0.276-1.528,0.911-2.714,1.898-3.555s2.219-1.262,3.688-1.262c1.015,0,1.948,0.218,2.802,0.652
			c0.853,0.436,1.506,1.028,1.959,1.782c0.452,0.752,0.678,1.551,0.678,2.396c0,0.803-0.216,1.531-0.646,2.192
			c-0.431,0.661-1.067,1.184-1.914,1.572c1.1,0.255,1.953,0.78,2.561,1.579c0.606,0.797,0.912,1.797,0.912,2.997
			c0,1.623-0.591,2.999-1.771,4.126c-1.185,1.128-2.68,1.691-4.487,1.691c-1.631,0-2.986-0.485-4.063-1.458
			C171.534,95.661,170.917,94.4,170.765,92.853z"/>
	</g>
	<g>
		<path d="M223.723,97.759h-2.281V83.219c-0.551,0.521-1.27,1.048-2.162,1.571c-0.894,0.524-1.692,0.917-2.402,1.18v-2.206
			c1.275-0.601,2.392-1.327,3.347-2.181c0.955-0.854,1.631-1.682,2.028-2.485h1.471V97.759L223.723,97.759z"/>
	</g>
	<g>
		<path d="M134.97,97.759h-2.281V83.219c-0.551,0.521-1.27,1.048-2.162,1.571c-0.894,0.524-1.692,0.917-2.402,1.18v-2.206
			c1.275-0.601,2.392-1.327,3.347-2.181c0.955-0.854,1.631-1.682,2.028-2.485h1.47L134.97,97.759L134.97,97.759L134.97,97.759z"/>
	</g>
</g>
<script  type="text/javascript" id="script1">
	<![CDATA[
  function clicked(obj) {
      var st = obj.getAttribute("class") == "st2" ? "st3": "st2";
      obj.setAttribute("class", st);
  }

  var lines = document.getElementsByTagName("path");
  var i;
  for(i = 0; i < lines.length; i++) {
      if (lines[i].getAttribute("class") == "st2") {
          lines[i].setAttribute('onclick', 'clicked(this)');
      }
      else {
          lines[i].setAttribute("style", "pointer-events: none");
      }
  }

		
		]]>
</script>
<g>
	<path class="st1" d="M83.708,140.047l-2.544,7.704h-3.271l8.321-24.49h3.814l8.358,24.49h-3.381l-2.615-7.704H83.708z
		 M91.736,137.576l-2.396-7.049c-0.545-1.599-0.909-3.052-1.272-4.47h-0.071c-0.363,1.453-0.766,2.942-1.237,4.434l-2.397,7.085
		H91.736L91.736,137.576z"/>
</g>
<g>
	<path class="st1" d="M124.796,212.323c1.38-0.29,3.562-0.51,5.774-0.51c3.163,0,5.197,0.546,6.725,1.783
		c1.271,0.942,2.036,2.396,2.036,4.319c0,2.363-1.562,4.438-4.145,5.381v0.072c2.327,0.581,5.051,2.508,5.051,6.143
		c0,2.105-0.836,3.707-2.069,4.905c-1.707,1.562-4.471,2.287-8.467,2.287c-2.182,0-3.853-0.146-4.905-0.29V212.323z
		 M127.957,222.353h2.87c3.344,0,5.305-1.743,5.305-4.106c0-2.871-2.181-3.997-5.378-3.997c-1.453,0-2.287,0.109-2.797,0.217
		V222.353L127.957,222.353z M127.957,234.088c0.617,0.109,1.525,0.146,2.652,0.146c3.271,0,6.287-1.2,6.287-4.761
		c0-3.345-2.873-4.725-6.326-4.725h-2.613V234.088z"/>
</g>
<g>
	<path class="st1" d="M230.538,146.969c-1.163,0.581-3.49,1.163-6.472,1.163c-6.899,0-12.098-4.359-12.098-12.392
		c0-7.667,5.197-12.863,12.788-12.863c3.054,0,4.978,0.655,5.813,1.09l-0.761,2.579c-1.2-0.58-2.907-1.017-4.942-1.017
		c-5.741,0-9.559,3.67-9.559,10.101c0,5.998,3.453,9.85,9.413,9.85c1.924,0,3.888-0.401,5.158-1.02L230.538,146.969z"/>
</g>
<g>
	<path class="st1" d="M211.226,212.323c1.921-0.29,4.214-0.51,6.719-0.51c4.543,0,7.777,1.056,9.922,3.053
		c2.18,2,3.449,4.834,3.449,8.795c0,3.997-1.232,7.268-3.521,9.519c-2.292,2.29-6.07,3.525-10.83,3.525
		c-2.251,0-4.141-0.105-5.738-0.29L211.226,212.323L211.226,212.323z M214.386,233.981c0.798,0.144,1.961,0.181,3.197,0.181
		c6.758,0,10.429-3.78,10.429-10.392c0.036-5.777-3.237-9.447-9.921-9.447c-1.634,0-2.871,0.144-3.705,0.326V233.981z"/>
</g>
<script  type="text/javascript" id="script1">
	<![CDATA[
  function clicked(obj) {
      var st = obj.getAttribute("class") == "st2" ? "st3": "st2";
      obj.setAttribute("class", st);
  }

  var lines = document.getElementsByTagName("path");
  var i;
  for(i = 0; i < lines.length; i++) {
      if (lines[i].getAttribute("class") == "st2") {
          lines[i].setAttribute('onclick', 'clicked(this)');
      }
      else {
          lines[i].setAttribute("style", "pointer-events: none");
      }
  }

		
		]]>
</script>
</svg>
