<?xml version="1.0" encoding="utf-8"?>
<!-- Generator: Adobe Illustrator 16.0.0, SVG Export Plug-In . SVG Version: 6.00 Build 0)  -->
<!DOCTYPE svg PUBLIC "-//W3C//DTD SVG 1.0//EN" "http://www.w3.org/TR/2001/REC-SVG-20010904/DTD/svg10.dtd">
<svg version="1.0" id="Layer_1" xmlns="http://www.w3.org/2000/svg" xmlns:xlink="http://www.w3.org/1999/xlink" x="0px" y="0px"
	 width="500px" height="1024px" viewBox="0 0 500 1024" enable-background="new 0 0 500 1024" xml:space="preserve">
<path fill-rule="evenodd" clip-rule="evenodd" d="M216.877,265.828c-0.429-0.227-0.857-0.451-1.287-0.677
	c-0.118-0.105-0.236-0.211-0.354-0.316c-4.826,8.125-9.651,16.251-14.477,24.375c-0.066,0.006-0.134,0.012-0.2,0.017
	c0.413-1.416,0.567-2.979,1.282-4.221c3.674-6.381,7.487-12.683,11.265-19.004c2.188-3.659,4.399-7.304,6.597-10.957
	c0.12-0.2,0.207-0.419,0.31-0.63c-0.071-0.142-0.144-0.284-0.216-0.427c-2.233,0.765-4.514,1.421-6.68,2.343
	c-0.982,0.419-1.683,1.325-0.893,2.637c0.407,0.676,0.545,1.514,0.626,2.376c-0.47-0.679-0.989-1.328-1.4-2.04
	c-0.891-1.538,0.214-3.444,1.934-4.227c2.171-0.987,4.458-1.738,6.74-2.449c0.997-0.31,1.68-0.708,2.178-1.683
	c2.735-5.347,5.548-10.652,8.323-15.979c0.349-0.671,0.595-1.397,0.952-2.064c0.121-0.224,0.458-0.49,0.663-0.464
	c0.196,0.023,0.472,0.388,0.499,0.626c0.145,1.274,0.886,1.693,2.078,1.661c1.587-0.042,3.177-0.063,4.764-0.017
	c1.716,0.05,2.319,0.605,2.019,2.239c-0.242,1.315-0.779,2.634-1.444,3.804c-1.463,2.568-3.093,5.043-4.647,7.559
	c-0.128,0.207-0.211,0.44-0.461,0.974c1.251-0.223,2.271-0.332,3.251-0.59c5.225-1.378,10.44-2.793,15.659-4.198
	c0.146-0.039,0.289-0.162,0.43-0.156c3.169,0.134,4.412-2.423,5.821-4.46c0.927-1.34,1.146-3.156,1.759-4.729
	c0.225-0.578,0.245-1.755,1.249-1.249c0.443,0.223,0.764,1.42,0.588,2.01c-0.622,2.09-1.482,4.11-2.44,6.657
	c2.54-0.681,4.744-1.302,6.963-1.86c3.607-0.909,7.214-1.829,10.843-2.647c2.789-0.629,5.607-1.136,8.423-1.641
	c0.743-0.133,1.548-0.179,2.278-0.033c0.427,0.085,0.763,0.628,1.14,0.966c-0.441,0.332-0.857,0.905-1.327,0.953
	c-1.725,0.178-3.516-0.054-5.193,0.296c-4.545,0.948-9.047,2.099-13.559,3.2c-3.072,0.75-6.147,1.5-9.186,2.373
	c-0.629,0.181-1.271,0.801-1.622,1.388c-2.197,3.682-4.241,7.457-6.489,11.106c-1.159,1.88-1.484,3.832-0.338,5.537
	c0.242,0.36,1.053,0.772,1.287,0.632c1.341-0.797,2.598-1.738,3.858-2.665c0.614-0.451,1.271-0.9,1.739-1.485
	c0.771-0.962,1.549-1.966,2.062-3.072c1.053-2.267,2.113-4.507,4.191-6.02c0.416-0.305,1.088-0.258,1.643-0.373
	c-0.026,0.553,0.122,1.195-0.107,1.643c-1.417,2.747-3.008,5.408-4.347,8.191c-0.487,1.013-0.63,2.288-0.59,3.432
	c0.056,1.549,1.235,2.295,2.707,1.552c2.22-1.12,4.326-2.495,6.379-3.91c3.558-2.453,6.55-5.498,8.93-9.118
	c0.447-0.68,0.741-1.468,1.224-2.117c0.27-0.363,0.783-0.546,1.187-0.811c0.085,0.512,0.398,1.136,0.212,1.514
	c-0.769,1.556-1.527,3.162-2.583,4.522c-4.424,5.695-10.237,9.598-16.734,12.558c-6.041,2.751-12.312,4.887-18.788,6.276
	c-5.109,1.096-10.276,1.192-15.512,0.28c-4.754-0.828-8.722-2.934-12.28-6.017c-0.418-0.362-0.636-0.956-0.949-1.443
	c1.063,0.812,2.061,1.741,3.205,2.424c6.688,3.986,13.989,5.267,21.544,3.857c5.591-1.043,11.049-2.831,16.531-4.409
	c1.523-0.438,2.922-1.312,4.495-2.042c-1.607-1.806-1.188-3.799-0.837-6.256c-1.167,0.989-1.923,1.718-2.768,2.325
	c-1.312,0.945-2.597,2.009-4.056,2.655c-1.851,0.819-3.293-0.162-3.695-2.177c-0.11-0.557-0.245-1.109-0.417-1.887
	c-1.253,1.468-2.203,2.806-3.381,3.899c-1.286,1.195-2.683,2.346-4.215,3.178c-1.42,0.772-2.277,0.269-2.817-1.263
	c-0.326-0.928-0.488-1.913-0.656-2.599c-1.29,1.335-2.635,2.839-4.123,4.184c-0.358,0.323-1.404,0.379-1.756,0.093
	c-0.457-0.371-0.715-1.204-0.726-1.845c-0.014-0.683,0.36-1.372,0.701-2.514c-1.411,1.335-2.425,2.406-3.56,3.328
	c-0.832,0.677-2.029,1.092-2.664-0.042c-0.505-0.904-0.826-2.257-0.536-3.197c0.973-3.156,2.234-6.226,3.434-9.309
	c0.285-0.735,0.76-1.396,1.377-2.508c-2.876,0.51-5.313,0.985-7.767,1.36c-1.409,0.216-2.221,1.015-2.903,2.199
	c-1.444,2.516-2.924,5.019-4.543,7.422C215.866,263.879,215.706,264.831,216.877,265.828z M228.585,265.715
	c3.271-1.7,5.004-4.235,6.838-6.617c0.884-1.148,1.299-2.647,2.067-3.901c0.288-0.471,0.976-0.696,1.482-1.034
	c0.066,0.579,0.235,1.171,0.165,1.733c-0.054,0.421-0.396,0.816-0.647,1.2c-1.83,2.783-2.866,5.888-3.931,9.236
	c3.161-1.161,4.354-3.779,5.574-6.208c0.754-1.5,0.813-3.336,1.306-4.986c0.129-0.436,0.705-0.738,1.076-1.101
	c0.238,0.455,0.533,0.891,0.691,1.372c0.086,0.262-0.033,0.606-0.105,0.902c-0.41,1.682-0.946,3.342-1.22,5.044
	c-0.25,1.553-0.67,3.204,0.525,4.839c0.924-0.569,1.906-0.971,2.62-1.654c1.64-1.571,3.186-3.245,4.691-4.947
	c0.629-0.711,1.183-1.543,1.555-2.413c0.997-2.332,1.837-4.73,2.819-7.069c0.563-1.34,1.285-2.613,2.024-4.097
	c-0.499,0-0.749-0.048-0.973,0.007c-6.78,1.678-13.564,3.342-20.327,5.09c-0.654,0.169-1.347,0.758-1.724,1.344
	c-2.181,3.379-3.413,7.167-4.485,11.005C228.438,264.071,228.585,264.772,228.585,265.715z M223.524,251.781
	c2.559-0.53,4.865-1.194,7.216-1.438c2.119-0.22,3.036-1.432,3.783-3.158c0.353-0.812,1.043-1.479,1.574-2.214
	c0.51-0.705,1.048-1.394,1.505-2.13c0.259-0.417,0.361-0.928,0.571-1.378c0.598-1.288,1.292-2.538,1.801-3.86
	c0.49-1.272-0.067-1.876-1.404-1.66c-2.217,0.358-4.424,0.612-6.503-0.417C229.229,240.925,226.438,246.237,223.524,251.781z"/>
<path fill-rule="evenodd" clip-rule="evenodd" d="M146.648,260.087c-0.873,1.801-1.667,3.412-2.438,5.034
	c-0.548,1.151-1.118,2.298-1.562,3.489c-0.13,0.351,0.14,0.848,0.226,1.278c0.385-0.133,0.861-0.162,1.14-0.413
	c2.713-2.439,5.368-4.942,8.091-7.371c1.06-0.945,2.222-1.785,3.394-2.593c0.359-0.247,0.904-0.227,1.364-0.329
	c0.118,0.568,0.466,1.21,0.312,1.691c-0.432,1.352-1.07,2.638-1.627,3.948c-0.248,0.584-0.498,1.167-0.746,1.751
	c0.122,0.078,0.246,0.156,0.368,0.234c0.814-0.999,1.601-2.022,2.45-2.989c1.493-1.697,2.989-3.394,4.574-5.002
	c0.287-0.291,1.248-0.391,1.478-0.16c0.398,0.401,0.755,1.203,0.622,1.704c-0.349,1.322-1.045,2.548-1.458,3.859
	c-0.35,1.112-0.496,2.288-0.722,3.387c2.2,0.864,3.44-0.421,4.565-1.365c2.581-2.169,4.75-4.718,6.104-7.894
	c0.261-0.609,0.998-1.017,1.516-1.518c0.425,0.514,1.072,0.966,1.234,1.552c0.597,2.148,1.034,4.342,1.608,6.859
	c0.662-0.928,1.233-1.816,1.891-2.636c1.622-2.015,3.24-4.037,4.965-5.962c0.325-0.363,1.134-0.294,1.719-0.424
	c-0.084,0.557,0.016,1.252-0.283,1.646c-1.481,1.949-3.064,3.822-4.618,5.717c-0.859,1.049-1.311,2.182-0.749,3.704
	c1.607-0.266,2.809-1.232,3.935-2.286c1.033-0.965,2.037-1.969,2.975-3.024c0.522-0.59,0.847-1.35,1.328-1.981
	c0.861-1.13,1.712-2.28,2.678-3.318c4.8-5.162,7.972-11.25,10.384-17.81c1.162-3.16,2.517-6.25,3.863-9.338
	c0.295-0.674,0.93-1.2,1.408-1.794c0.187,0.102,0.374,0.203,0.561,0.306c-0.082,0.73-0.018,1.516-0.27,2.182
	c-2.385,6.308-4.666,12.662-7.309,18.861c-1.536,3.602-3.678,6.944-5.552,10.401c-0.12,0.225-0.266,0.44-0.425,0.641
	c-1.681,2.118-1.681,2.203,0.309,4.195c1.442,1.446,2.904,2.874,4.35,4.316c0.251,0.251,0.585,0.508,0.668,0.82
	c0.142,0.521,0.113,1.089,0.156,1.637c-0.567-0.093-1.341,0.017-1.665-0.314c-2.028-2.065-3.939-4.245-5.925-6.353
	c-0.768-0.815-1.631-1.539-2.448-2.306c-1.454,1.399-3.014,2.917-4.596,4.414c-0.59,0.558-1.174,1.152-1.855,1.577
	c-2.532,1.579-3.323,1.395-5.013-1.161c-0.382,0.435-0.752,0.814-1.076,1.23c-0.901,1.151-1.725,2.369-2.702,3.446
	c-0.338,0.371-1.045,0.405-1.582,0.594c0.093-0.686-0.068-1.683,0.323-2.003c1.335-1.089,2.047-2.408,2.094-4.069
	c0.06-2.158,0.015-4.318,0.015-6.479c-0.211-0.038-0.422-0.078-0.633-0.117c-0.917,1.303-1.851,2.595-2.747,3.912
	c-1.768,2.598-4.104,4.572-6.921,5.872c-0.763,0.352-2.2,0.239-2.777-0.276c-0.651-0.583-1.091-1.951-0.898-2.817
	c0.398-1.801,1.281-3.492,1.945-5.235c0.115-0.303,0.134-0.641,0.197-0.962c-0.157-0.107-0.312-0.215-0.47-0.322
	c-1.783,2.091-3.581,4.171-5.344,6.278c-0.688,0.821-1.22,1.788-1.981,2.523c-0.378,0.365-1.116,0.357-1.692,0.518
	c-0.102-0.546-0.419-1.162-0.266-1.623c0.556-1.668,1.274-3.282,1.919-4.922c0.084-0.212,0.093-0.453-0.172-0.933
	c-1.519,1.371-3.049,2.729-4.551,4.118c-1.682,1.554-3.28,3.203-5.018,4.691c-2.692,2.308-3.286,1.481-4.703-0.742
	c-0.31,0.235-0.604,0.471-0.91,0.694c-1.037,0.759-2.055,1.611-3.484,1.079c-1.605-0.598-2.122-1.966-2.354-3.482
	c-0.135-0.89-0.192-1.797-0.207-2.698c-0.014-0.888,0.071-1.778,0.113-2.667c-0.129-0.04-0.257-0.079-0.385-0.117
	c-2.811,4.981-5.543,10.01-8.455,14.933c-2.856,4.832-5.887,9.56-8.877,14.311c-0.164,0.26-0.665,0.306-1.01,0.451
	c-0.113-0.402-0.438-0.904-0.304-1.189c0.589-1.243,1.311-2.424,1.984-3.627c2.299-4.098,4.599-8.195,6.897-12.294
	c-0.109-0.073-0.217-0.146-0.325-0.22c-1.604,1.072-3.156,2.238-4.833,3.18c-0.938,0.527-2.069,0.851-3.145,0.962
	c-1.659,0.171-3.002-1.074-2.98-2.739c0.016-1.204-0.485-0.873-1.227-0.759c-0.987,0.152-2.01,0.066-3.018,0.084
	c0.118-1.075-0.059-2.306,0.407-3.198c1.534-2.937,3.301-5.751,5.168-8.938c-3.149,1.235-6.068,1.671-8.277,4.414
	c-2.914,3.617-6.021,7.243-10.101,9.679c-1.477,0.883-3.254,1.468-4.96,1.707c-2.016,0.282-3.188-1.414-2.884-3.485
	c0.771-5.248,2.964-9.973,5.71-14.378c3.147-5.049,6.426-10.071,10.182-14.669c2.826-3.457,6.488-6.233,9.795-9.296
	c0.886-0.819,1.83-1.575,2.855-2.455c0.589,2.373-1.465,2.688-2.42,3.659c-3.288,3.34-7.012,6.285-10.055,9.823
	c-5.868,6.822-10.528,14.464-13.708,22.928c-0.529,1.411-0.755,2.96-0.947,4.467c-0.21,1.638,1.021,2.486,2.649,2.048
	c2.765-0.747,4.78-2.622,6.873-4.402c1.336-1.137,2.83-2.11,4.043-3.36c1.218-1.255,2.226-2.726,3.231-4.168
	c0.934-1.339,2.126-2.067,3.745-2.344c1.024-0.176,1.982-0.742,2.975-1.119c0.334-0.126,0.684-0.294,1.025-0.291
	c0.638,0.003,1.276,0.118,1.913,0.187c-0.174,0.602-0.237,1.268-0.542,1.794c-1.914,3.299-3.882,6.567-6.015,10.153
	c2.378,0.162,3.885-0.875,4.896-2.126c1.634-2.024,3.778-3.749,4.472-6.471c0.094-0.368,0.815-0.578,1.246-0.861
	c0.116,0.483,0.485,1.106,0.308,1.425c-1.033,1.845-2.163,3.639-3.325,5.407c-0.586,0.889-1.286,1.708-1.979,2.521
	c-0.854,1.003-0.737,2.187,0.113,2.823c0.593,0.444,1.848,0.376,2.654,0.096c2.87-0.994,4.902-3.224,6.921-5.334
	c2.17-2.271,4.096-4.78,6.085-7.221c1.124-1.38,2.121-2.864,3.262-4.229c0.304-0.363,0.927-0.463,1.402-0.683
	c0.174,0.444,0.482,0.885,0.494,1.334c0.037,1.432-0.1,2.867-0.048,4.297c0.038,1.06,0.146,2.146,0.438,3.159
	c0.449,1.56,1.495,1.809,2.777,0.795c2.648-2.095,4.308-4.923,5.861-7.841C144.69,260.656,144.879,259.521,146.648,260.087z
	 M190.931,260.797c1.271-1.802,2.452-3.479,3.635-5.157C192.415,256.729,190.394,259.758,190.931,260.797z"/>
<path fill-rule="evenodd" clip-rule="evenodd" d="M97.459,261.034c0.34,0.039,0.69,0.151,1.017,0.104
	c1.261-0.181,2.718-0.071,3.736-0.681c6.161-3.688,10.8-9.062,15.291-14.516c2.575-3.128,4.11-6.833,4.284-10.978
	c0.028-0.654-0.069-1.313-0.123-2.189c-1.133,0.329-2.116,0.613-3.099,0.897c-0.08-0.258-0.159-0.517-0.239-0.775
	c1.193-0.445,2.366-1.04,3.6-1.231c0.307-0.048,1.188,1.217,1.172,1.864c-0.088,3.581-0.884,6.96-2.784,10.119
	c-4.016,6.674-9.428,12.019-15.513,16.726c-1.838,1.422-3.876,2.822-6.473,2.001c-0.449-0.143-0.82-0.536-1.227-0.812
	C97.221,261.386,97.34,261.21,97.459,261.034z"/>
<path fill-rule="evenodd" clip-rule="evenodd" d="M136.678,224.959c-0.096-0.06,0.109,0.069,0.469,0.295
	c-1.943,1.395-4.167,0.676-6.028,0.569c-2.119-0.122-4.017-1.656-4.733-4.055c1.34-0.758,2.228,0.136,2.927,0.993
	c1.054,1.289,2.25,1.313,3.65,0.858c0.963-0.313,1.932-0.738,2.918-0.798c0.612-0.038,1.262,0.511,1.894,0.797
	C137.413,224.06,137.052,224.501,136.678,224.959z"/>
<path fill-rule="evenodd" clip-rule="evenodd" d="M177.963,246.469c1.027-0.489,2.447,0.534,3.009-1.055
	c0.179,0.07,0.406,0.098,0.542,0.223c0.488,0.449,0.943,0.931,1.411,1.399c-0.507,0.464-0.937,1.136-1.534,1.358
	C179.014,249.28,178.287,248.838,177.963,246.469z"/>
<path fill-rule="evenodd" clip-rule="evenodd" d="M149.67,243.02c-0.205,0.738-0.347,1.247-0.592,2.133
	c-0.952-0.597-1.745-1.095-2.539-1.592c0.077-0.234,0.154-0.466,0.23-0.699C147.666,242.91,148.562,242.959,149.67,243.02z"/>
</svg>
