<?xml version="1.0" encoding="utf-8"?>
<!-- Generator: Adobe Illustrator 16.0.0, SVG Export Plug-In . SVG Version: 6.00 Build 0)  -->
<!DOCTYPE svg PUBLIC "-//W3C//DTD SVG 1.1//EN" "http://www.w3.org/Graphics/SVG/1.1/DTD/svg11.dtd">
<svg version="1.1" id="Layer_1" xmlns="http://www.w3.org/2000/svg" xmlns:xlink="http://www.w3.org/1999/xlink" x="0px" y="0px"
	 width="100px" height="100px" viewBox="0 0 100 100" enable-background="new 0 0 100 100" xml:space="preserve">
<path fill="none" stroke="#000000" stroke-width="3" stroke-miterlimit="10" d="M30.046,21.5c0.391,1.998-0.326,4.971-0.266,7.21
	c0.164,6.173,1.714,13.96,6.48,18.357c11.759,10.845,27.155-17.309,15.576-24.786c-4.722-3.048-8.797-1.637-10.102,3.673
	c-1.206,4.904,0.3,9.898,1.823,14.553c2.268,6.937,4.655,13.745,6.511,20.815c1.952,7.438,8.167,22.738,0.278,28.733
	c-8.263,6.278-19.262-1.849-21.55-10.307"/>
<path fill="none" stroke="#000000" stroke-width="3" stroke-miterlimit="10" d="M19.296,11.75c-0.411-0.534-0.66-1.306-0.662-1.909
	c8.14,0.368,16.294,2.475,24.444,3.116c12.046,0.946,24.226,1.084,36.218,2.543"/>
<path fill="none" stroke="#000000" stroke-width="3" stroke-miterlimit="10" d="M94.546,28.5c-0.245,1.23-2.958,0.869-3.986,0.966
	c-9.461,0.895-18.401,3.603-27.497,6.235c-11.709,3.388-23.338,6.689-34.46,11.769c-7.949,3.63-18.953,8.26-24.408,15.522
	c-2.62,3.486-0.639,3.782,3.127,4.238c12.19,1.478,25.163-0.757,37.25-2.2c13.534-1.616,27.088-3.203,40.592-5.065
	c1.113-0.153,6.86-1.478,7.383-0.965"/>
</svg>
