<?xml version="1.0" encoding="utf-8"?>
<!-- Generator: Adobe Illustrator 16.0.4, SVG Export Plug-In . SVG Version: 6.00 Build 0)  -->
<!DOCTYPE svg PUBLIC "-//W3C//DTD SVG 1.1//EN" "http://www.w3.org/Graphics/SVG/1.1/DTD/svg11.dtd">
<svg version="1.1" id="Layer_1" xmlns="http://www.w3.org/2000/svg" xmlns:xlink="http://www.w3.org/1999/xlink" x="0px" y="0px"
	 width="109.112px" height="161.622px" viewBox="0 0 109.112 161.622" enable-background="new 0 0 109.112 161.622"
	 xml:space="preserve">
<g>
	<defs>
		<rect id="SVGID_1_" width="109.112" height="161.622"/>
	</defs>
	<clipPath id="SVGID_2_">
		<use xlink:href="#SVGID_1_"  overflow="visible"/>
	</clipPath>
	<path clip-path="url(#SVGID_2_)" fill="#070606" d="M49.475,79.43c1.039-2.707,31.164-6.541,36.428-2.914
		c-0.898,6.708,16.19,20.258,7.49,40.59c-2.914,8.326-13.042,14.472-13.042,14.472s0.215,1.866,0.425,2.198
		c2.077,1.457,17.24-2.311,22.013,0.309c4.772,2.616,6.004,8.312,3.389,10.623c-4.689,3.344-18.819-4.062-30.438-2.582
		c-3.758-0.456-3.191-8.43-3.191-8.43l-1.313,0.537c0,0-5.021,1.365-10.474,0.358c-0.064,0.876,3.745,1.953,3.472,5.427
		c-0.277,3.471-5.459,12.014-10.75,16.809c-5.29,4.795-18.068-3.441-16.613-7.813c1.459-4.372,13.642-9.783,15.337-11.938
		c1.691-2.156-1.851-6.235-1.851-6.235s-12.122-4.784-11.914-19.145C38.649,97.33,46.143,96.914,49.475,79.43"/>
	<path clip-path="url(#SVGID_2_)" fill="#070606" d="M42.35,123.992c0,0-44.659-60.261-32.519-96.029
		C18.504,7.803,39.748,4.768,55.138,3.683c15.391-1.084,49.422,1.3,49.856,14.741c0.436,21.028-33.816,15.175-33.816,15.175
		s-11.056,1.732-19.291,12.357c-14.743,17.99,1.519,49.422,1.519,49.422L42.35,123.992"/>
	<path clip-path="url(#SVGID_2_)" fill="#3E220B" d="M47.334,85.625c-1.086,11.487-10.404,12.571-9.322,26.88
		c-1.082,0.216-22.544-35.55-26.228-57.662c-3.688-22.11,0.866-35.984,18.208-34.466C46.9,22.327,55.785,31.43,68.576,32.299
		C33.703,40.236,46.9,83.672,47.334,85.625"/>
	<path clip-path="url(#SVGID_2_)" fill="#744012" d="M18.937,19.51C25.439,10.185,59.907,0,89.604,9.536
		c19.509,7.59,11.271,16.259,6.504,19.076c-4.771,2.818-5.421,3.687-20.16,2.603C61.207,30.13,39.095,10.836,18.937,19.51"/>
	<path clip-path="url(#SVGID_2_)" fill="#CF7F3C" d="M50.935,80.223c4.445,0.76,12.139,0.479,12.139,0.479s0.509,1.523,1.906,1.904
		c1.397,0.382,6.48,0.89,7.37,0.256c0.89-0.637,2.08-3.523,2.08-3.523s5.164-0.416,9.103-1.305
		c0.508,4.321,10.418,14.358,10.418,29.352c0,14.993-14.737,23.126-14.737,23.126s-20.616,9.604-34.31-6.606
		c-13.693-16.213-0.502-26.759,3.018-31.971C49.393,86.379,49.46,83.299,50.935,80.223"/>
	<path clip-path="url(#SVGID_2_)" fill="#CF7F3C" d="M50.896,119.294l9.226,3.181c0,0-2.177,7.496-1.02,12.357
		c0.71,2.919,2.696,1.73,3.472,4.892c0.773,3.157-6.393,14.911-10.809,16.646c-4.421,1.735-6.234,0.396-6.788-0.394
		c-0.71-3.473,11.834-10.1,10.258-11.441c0.788,1.577-6.787,3.474-11.439,10.414c-1.026,0.317-4.895-1.575-3.554-3.313
		c1.343-1.735,12.312-7.403,11.284-8.442c-0.711,0.776-9.311,5.525-12.152,8.206c-0.548,0.08-1.97-1.655-0.473-3.552
		c2.921-3.076,11.914-6.452,15.069-10.554C54.759,133.902,50.896,119.294,50.896,119.294"/>
	<path clip-path="url(#SVGID_2_)" fill="#CF7F3C" d="M70.148,122.483c4.298-0.332,8.615-2.391,8.615-2.391
		s-1.251,13.905,0.843,14.732c2.096,0.826,13.56-0.661,17.97-0.497c4.407,0.166,6.558,2.535,6.558,2.535s-6.779-1.708-8.378-0.716
		c3.803-0.277,8.711,1.321,8.711,1.321s2.203,1.269,1.871,2.922c-3.525-2.533-10.308-2.094-10.308-2.094s7.441,0.495,10.088,2.424
		c0.497,0.386,0.809,2.771-1.048,3.529c-1.856,0.756-12.841-2.314-18.629-3.474c-5.79-1.156-9.2,0.565-11.509-0.404
		C72.625,139.401,76.072,132.28,70.148,122.483"/>
	<path clip-path="url(#SVGID_2_)" fill="#DDAA7B" d="M59.243,79.401c1.301,0,23.46-2.347,23.46-2.347
		c-3.252,10.733,11.989,20.044,7.11,35.651c-4.877,15.607-24.385,17.559-33.815,8.778C46.567,112.706,65.421,92.734,59.243,79.401"
		/>
	<path clip-path="url(#SVGID_2_)" fill="#070606" d="M53.601,80.59c-4.231-0.371-12.22-4.257-13.009-12.998
		c-0.729-11.203,5.126-13.922,6.225-16.747c1.096-2.824,0.181-9.939,4.084-12.159c-0.56-0.155-3.445-3.035-3.655-4.148
		c-0.21-1.115,0.787-3.938,3.308-2.971c2.52,0.972,2.117,5.931,2.117,5.931s12.094-7.601,29.632,0.103
		c-0.101-3.699,0.004-6.48,1.32-7.139c1.316-0.656,5.326,1.495,4.745,3.479c-0.576,1.986-3.507,4.737-4.483,5.439
		c1.759,2.665,2.141,5.964,2.937,7.144c2.351,4.556,7.795,6.323,9.009,13.789c1.212,7.465-5.041,13.851-8.474,16.299
		C83.916,79.058,57.836,80.956,53.601,80.59"/>
	<path clip-path="url(#SVGID_2_)" fill="#CF7F3C" d="M56.409,79.212c-5.742-0.147-13.902-3.972-14.43-12.188
		c-0.529-8.214,4.284-11.146,6.123-16.593c1.837-5.448-0.033-9.552,7.284-12.744c7.316-3.192,16.888-2.728,23.608,0.094
		c5.075,2.202,5.362,7.752,6.868,10.166c1.509,2.412,7.338,6.438,8.234,12.395c0.893,5.958-4.652,12.748-7.622,14.758
		C83.506,77.114,62.154,79.36,56.409,79.212"/>
	<path clip-path="url(#SVGID_2_)" fill="#070606" d="M55.416,47.895c3.033-3.156,18.58-3.748,23.197,0.126
		c3.804,4.43,5.265,9.143,4.429,13.811c-0.833,4.667-4.657,11.511-8.266,12.703c0,0-1.74,6.612-2.833,7.46
		c-1.092,0.848-5.754-0.065-6.563-0.168c-0.81-0.1-3.923-7.409-3.923-7.409c-5.628-3.012-9.072-10.937-9.456-14.441
		C51.622,56.469,52.388,51.054,55.416,47.895"/>
	<path clip-path="url(#SVGID_2_)" fill="#DDAA7B" d="M56.46,48.109c-4.448,2.65-5.385,19.896,5.605,25.4
		c3.072-1.506,4.735-3.603,4.735-3.603s-0.77-21.331,0.11-21.14c0.882,0.195,0.832,20.848,0.832,20.848s2.681,3.545,6.802,4.15
		c11.968-9.439,6.605-23.036,3.023-25.298C73.982,46.202,60.909,45.461,56.46,48.109"/>
	<path clip-path="url(#SVGID_2_)" fill="#070606" d="M56.543,47.462c2.675-1.64,15.913-2.851,21.654,0.59
		c0.809,0.76-6.469,8.234-10.866,8.505C62.935,56.828,53.867,49.101,56.543,47.462"/>
	<path clip-path="url(#SVGID_2_)" fill="#FFFFFF" d="M67.083,70.933c-1.034,1.674-4.3,3.405-4.3,3.405s2.081,6.355,2.962,6.548
		c0.882,0.192,2.196,0.192,2.196,0.192S66.876,73.866,67.083,70.933"/>
	<path clip-path="url(#SVGID_2_)" fill="#FFFFFF" d="M67.74,70.93c0.921,3.159,0.922,10.322,0.922,10.322l2.614,0.164
		c0,0,2.117-3.765,2.425-6.853C70.657,73.933,68.042,71.132,67.74,70.93"/>
	<path clip-path="url(#SVGID_2_)" fill="#FFFFFF" d="M69.659,47.88c0.132-1.054,6.482-0.5,6.246,0.704
		C75.673,49.79,69.527,48.932,69.659,47.88"/>
	<path clip-path="url(#SVGID_2_)" fill="#DDAA7B" d="M51.439,37.498c0,0-3.386-2-3.31-3.386c0.078-1.388,1.694-2.541,2.618-1.388
		C51.669,33.88,51.439,37.498,51.439,37.498"/>
	<path clip-path="url(#SVGID_2_)" fill="#DDAA7B" d="M83.23,38.113c0,0,0.002-6.234,1.231-6.31c1.234-0.077,2.542,0.691,2.619,1.922
		C87.159,34.959,83.23,38.113,83.23,38.113"/>
	<path clip-path="url(#SVGID_2_)" fill="#070606" d="M85.486,79.013c0,0,10.255,7.152,12.528,11.055
		c2.278,3.901-3.102,10.729-3.102,10.729L85.486,79.013"/>
	<path clip-path="url(#SVGID_2_)" fill="#CF7F3C" d="M87.069,82.118c0,0,4.497,8.248,4.95,9.148c1.048,0.75,2.997,6.599,2.997,6.599
		s2.249-4.647,1.35-7.048C95.468,88.418,87.069,82.118,87.069,82.118"/>
	<path clip-path="url(#SVGID_2_)" fill="#070606" d="M54.874,87.86c-0.466,3.204-11.964,9.631-11.964,9.631l-2.678,5.573
		c0,0-5.097-3.646-4.008-6.604c1.089-2.957,4.389-13.569,13.543-15.995C52.135,80.466,55.342,84.657,54.874,87.86"/>
	<path clip-path="url(#SVGID_2_)" fill="#CF7F3C" d="M50.479,81.636c8.874,0.778,6.186,3.087,5.612,5.096
		c-0.576,2.007-10.616,8.622-12.816,9.271c-2.229,2.008-3.557,5.528-3.557,5.528s-2.73-3.71-2.553-5.081
		C37.347,95.077,42.784,82.508,50.479,81.636"/>
	<path clip-path="url(#SVGID_2_)" fill="#070606" d="M51.837,43.555c0,0,5.915-1.474,6.66-0.171
		c0.749,1.303-0.152,2.225-1.496,2.306c-1.342,0.081-1.589-1.425-2.321-1.76C53.948,43.595,51.837,43.555,51.837,43.555"/>
	<path clip-path="url(#SVGID_2_)" fill="#FFFFFF" d="M58.355,44.021c-0.055,0.411-0.43,0.702-0.836,0.65
		c-0.414-0.054-0.699-0.425-0.651-0.834c0.053-0.41,0.425-0.7,0.841-0.65C58.116,43.236,58.404,43.612,58.355,44.021"/>
	<path clip-path="url(#SVGID_2_)" fill="#070606" d="M73.794,57.442c0,0,15.391-6,19.205,1.755
		c-5.003-7.163-18.87-0.859-18.87-0.859L73.794,57.442"/>
	<path clip-path="url(#SVGID_2_)" fill="#070606" d="M77.492,59.815c0,0,13.909-1.176,15.143,6.021
		c-2.336-7.002-15.087-5.218-15.087-5.218L77.492,59.815"/>
	<path clip-path="url(#SVGID_2_)" fill="#070606" d="M74.959,62.781c0,0,16.192,3.269,15.21,11.857
		c-0.335-8.729-15.41-10.924-15.41-10.924L74.959,62.781"/>
	<path clip-path="url(#SVGID_2_)" fill="#070606" d="M60.7,58.594c0,0-14.349-5.597-17.903,1.635
		c4.662-6.678,17.591-0.802,17.591-0.802L60.7,58.594"/>
	<path clip-path="url(#SVGID_2_)" fill="#070606" d="M57.252,60.801c0,0-12.969-1.093-14.117,5.617
		c2.178-6.528,14.062-4.864,14.062-4.864L57.252,60.801"/>
	<path clip-path="url(#SVGID_2_)" fill="#070606" d="M59.612,63.568c0,0-15.096,3.05-14.179,11.053
		c0.312-8.137,14.365-10.181,14.365-10.181L59.612,63.568"/>
	<path clip-path="url(#SVGID_2_)" fill="#070606" d="M82.435,43.639c0,0-5.912-1.476-6.661-0.171
		c-0.749,1.302,0.151,2.226,1.497,2.306c1.343,0.082,1.75-1.432,2.481-1.769C80.484,43.671,82.435,43.639,82.435,43.639"/>
	<path clip-path="url(#SVGID_2_)" fill="#FFFFFF" d="M77.437,43.736c0.031,0.247,0.26,0.422,0.502,0.392
		c0.247-0.034,0.42-0.257,0.391-0.503c-0.031-0.246-0.256-0.42-0.503-0.389C77.578,43.266,77.405,43.488,77.437,43.736"/>
	<path clip-path="url(#SVGID_2_)" fill="#FFFFFF" d="M78.563,44.053c-0.054,0.409-0.429,0.701-0.836,0.647
		c-0.414-0.052-0.699-0.424-0.647-0.833c0.049-0.412,0.424-0.7,0.837-0.65C78.325,43.269,78.613,43.643,78.563,44.053"/>
</g>
</svg>
